<svg xmlns="http://www.w3.org/2000/svg" x="0px" y="0px"
width="24" height="22"
viewBox="0 0 172 172"
style=" fill:#000000;"><g fill="none" fill-rule="nonzero" stroke="none" stroke-width="1" stroke-linecap="butt" stroke-linejoin="miter" stroke-miterlimit="10" stroke-dasharray="" stroke-dashoffset="0" font-family="none" font-weight="none" font-size="none" text-anchor="none" style="mix-blend-mode: normal"><path d="M0,172v-172h172v172z" fill="none"></path><path d="M86,172c-47.49649,0 -86,-38.50351 -86,-86v0c0,-47.49649 38.50351,-86 86,-86v0c47.49649,0 86,38.50351 86,86v0c0,47.49649 -38.50351,86 -86,86z" fill="#5368df"></path><g fill="#ffffff"><path d="M114.66667,17.19965h-57.33333c-6.32122,0 -11.46667,5.14264 -11.46667,11.46667v123.26667c0,1.0918 0.62148,2.08841 1.6013,2.57272c0.99102,0.48151 2.15,0.36673 3.01224,-0.29954l35.51979,-27.32292l35.51979,27.32292c0.50951,0.39193 1.12539,0.59349 1.74688,0.59349c0.43112,0 0.86224,-0.09798 1.26536,-0.29395c0.97982,-0.48431 1.6013,-1.48092 1.6013,-2.57272v-123.26667c0,-6.32402 -5.14544,-11.46666 -11.46667,-11.46666z"></path></g><path d="" fill="none"></path><path d="" fill="none"></path></g></svg>